<svg xmlns="http://www.w3.org/2000/svg" viewBox="0 0 512 512">
  <defs>
    <radialGradient id="glow" cx="70%" cy="24%" r="62%">
      <stop offset="0" stop-color="#f5a623" stop-opacity="0.18"/>
      <stop offset="0.62" stop-color="#05070d" stop-opacity="0"/>
    </radialGradient>
    <linearGradient id="amb" x1="0" y1="1" x2="1" y2="0">
      <stop offset="0" stop-color="#f5a623" stop-opacity="0.55"/>
      <stop offset="1" stop-color="#ffb43a"/>
    </linearGradient>
  </defs>
  <rect width="512" height="512" fill="#05070d"/>
  <g stroke="#e8ebf2" stroke-opacity="0.055" stroke-width="1.5">
    <line x1="0" y1="128" x2="512" y2="128"/><line x1="0" y1="256" x2="512" y2="256"/><line x1="0" y1="384" x2="512" y2="384"/>
    <line x1="128" y1="0" x2="128" y2="512"/><line x1="256" y1="0" x2="256" y2="512"/><line x1="384" y1="0" x2="384" y2="512"/>
  </g>
  <rect width="512" height="512" fill="url(#glow)"/>
  <g fill="none" stroke-linecap="round" stroke-linejoin="round">
    <path d="M-20 330 L196 300" stroke="#e8ebf2" stroke-width="17"/>
    <path d="M196 300 L338 356 L532 410" stroke="#5b647a" stroke-width="16"/>
    <path d="M196 300 L344 210 L532 92" stroke="url(#amb)" stroke-width="19"/>
  </g>
  <circle cx="344" cy="210" r="11" fill="#ffb43a"/>
  <circle cx="196" cy="300" r="21" fill="#f5a623"/>
  <circle cx="196" cy="300" r="21" fill="none" stroke="#05070d" stroke-width="5"/>
</svg>
